<svg width="250" xmlns="http://www.w3.org/2000/svg" height="250" id="screenshot-ee0d37b6-3a50-80ca-8008-4e3ba0ca3cc1" viewBox="0 0 250 250" xmlns:xlink="http://www.w3.org/1999/xlink" fill="none" version="1.1"><g id="shape-ee0d37b6-3a50-80ca-8008-4e3ba0ca3cc1"><defs><clipPath id="frame-clip-ee0d37b6-3a50-80ca-8008-4e3ba0ca3cc1-render-1" class="frame-clip frame-clip-def"><rect rx="40" ry="40" x="0" y="0" width="250" height="250" transform="matrix(1.000000, 0.000000, 0.000000, 1.000000, 0.000000, 0.000000)"/></clipPath><linearGradient id="fill-color-gradient-render-1-0" x1="0.8055120795031735" y1="0.02215573034543877" x2="0.17114539430087872" y2="0.9814387380047747" gradientTransform=""><stop offset="0" stop-color="#2dd59d" stop-opacity="1"/><stop offset="0.62" stop-color="#099566" stop-opacity="1"/></linearGradient><pattern patternUnits="userSpaceOnUse" x="0" y="0" width="250" height="250" id="fill-0-render-1"><g><rect width="250" height="250" style="fill: url(&quot;#fill-color-gradient-render-1-0&quot;);"/></g></pattern></defs><g class="frame-container-wrapper"><g class="frame-container-blur"><g class="frame-container-shadows"><g clip-path="url(#frame-clip-ee0d37b6-3a50-80ca-8008-4e3ba0ca3cc1-render-1)" fill="none"><g class="fills" id="fills-ee0d37b6-3a50-80ca-8008-4e3ba0ca3cc1"><rect width="250" height="250" class="frame-background" x="0" transform="matrix(1.000000, 0.000000, 0.000000, 1.000000, 0.000000, 0.000000)" ry="40" fill="url(#fill-0-render-1)" rx="40" y="0"/></g><g class="frame-children"><g id="shape-ee0d37b6-3a50-80ca-8008-4e3b40861ba3" width="1em" height="1em" rx="0" ry="0" style="fill: rgb(0, 0, 0);"><g id="shape-ee0d37b6-3a50-80ca-8008-4e3b40871935" style="display: none;"><g class="fills" id="fills-ee0d37b6-3a50-80ca-8008-4e3b40871935"><rect width="168" height="168" x="41" transform="matrix(1.000000, 0.000000, 0.000000, 1.000000, 0.000000, 0.000000)" style="fill: none;" ry="0" fill="none" rx="0" y="41"/></g></g><g id="shape-ee0d37b6-3a50-80ca-8008-4e3b4087b3cd"><g class="fills" id="fills-ee0d37b6-3a50-80ca-8008-4e3b4087b3cd"><path d="M185.66656494140625,143.66656494140625L92.33331298828125,143.66656494140625L83,87.66665649414062L194.99993896484375,87.66665649414062Z" style="fill: rgb(255, 255, 255); fill-opacity: 0.4;"/></g></g><g id="shape-ee0d37b6-3a50-80ca-8008-4e3b4088768b"><g class="fills" id="fills-ee0d37b6-3a50-80ca-8008-4e3b4088768b"><path d="M194.92523193359375,167L92.2586669921875,167C87.1534423828125,167,83,162.84210205078125,83,157.7413330078125C83,152.64068603515625,87.22808837890625,148.33343505859375,92.33331298828125,148.33343505859375L92.36602783203125,148.32867431640625L92.4034423828125,148.33343505859375L185.66656494140625,148.33343505859375C187.94775390625,148.33233642578125,189.893798828125,146.68231201171875,190.26806640625,144.43194580078125L199.60137939453125,88.43197631835938C199.83135986328125,87.07864379882812,199.45196533203125,85.69277954101562,198.564697265625,84.645263671875C197.67742919921875,83.59793090820312,196.37298583984375,82.99569702148438,194.99993896484375,83L86.81280517578125,83L81.95928955078125,54.225433349609375C81.57305908203125,52.0809326171875,79.74090576171875,50.497833251953125,77.5634765625,50.42657470703125C77.48858642578125,50.41259765625,77.43719482421875,50.333282470703125,77.36260986328125,50.333282470703125L55.00006103515625,50.333282470703125C52.4224853515625,50.333282470703125,50.33331298828125,52.42266845703125,50.33331298828125,54.999969482421875C50.33331298828125,57.57733154296875,52.4224853515625,59.6666259765625,55.00006103515625,59.6666259765625L73.41455078125,59.6666259765625L86.96185302734375,140.008056640625C79.29931640625,142.30859375,73.66668701171875,149.34136962890625,73.66668701171875,157.7413330078125C73.68206787109375,168.0030517578125,81.9970703125,176.31793212890625,92.2586669921875,176.33331298828125L194.92523193359375,176.33331298828125C197.50250244140625,176.33331298828125,199.59197998046875,174.24395751953125,199.59197998046875,171.66668701171875C199.59197998046875,169.08935546875,197.50250244140625,167,194.92523193359375,167M184.82672119140625,120.33331298828125L169.39398193359375,120.33331298828125L170.66802978515625,111L186.37603759765625,111L184.82672119140625,120.33331298828125M159.97222900390625,120.33331298828125L143.66656494140625,120.33331298828125L143.66656494140625,111L161.2462158203125,111L159.97222900390625,120.33331298828125M134.33331298828125,120.33331298828125L125.513671875,120.33331298828125L118.0279541015625,120.33331298828125L116.75390625,111L134.33331298828125,111L134.33331298828125,120.33331298828125M108.6104736328125,120.33331298828125L93.17828369140625,120.33331298828125L91.6241455078125,111L107.33673095703125,111L108.6104736328125,120.33331298828125M96.285888671875,139L94.7318115234375,129.66668701171875L109.884521484375,129.66668701171875L111.1585693359375,139L96.285888671875,139M120.58056640625,139L119.30682373046875,129.66668701171875L134.33331298828125,129.66668701171875L134.33331298828125,139L120.58056640625,139M143.66656494140625,139L143.66656494140625,129.66668701171875L158.693115234375,129.66668701171875L157.41937255859375,139L143.66656494140625,139M166.8458251953125,139L168.11993408203125,129.66668701171875L183.2725830078125,129.66668701171875L181.71856689453125,139L166.8458251953125,139M189.48846435546875,92.33328247070312L187.9346923828125,101.66659545898438L171.94659423828125,101.66659545898438L173.22064208984375,92.33328247070312L189.48846435546875,92.33328247070312M163.798828125,92.33328247070312L162.52484130859375,101.66659545898438L143.66656494140625,101.66659545898438L143.66656494140625,92.33328247070312L163.798828125,92.33328247070312M134.33331298828125,92.33328247070312L134.33331298828125,101.66659545898438L115.475341796875,101.66659545898438L114.2012939453125,92.33328247070312L134.33331298828125,92.33328247070312M104.779296875,92.33328247070312L106.0533447265625,101.66659545898438L90.06072998046875,101.66659545898438L88.5067138671875,92.33328247070312L104.779296875,92.33328247070312" style="fill: rgb(255, 255, 255); fill-opacity: 1;"/></g></g><g id="shape-ee0d37b6-3a50-80ca-8008-4e3b4088a728"><g class="fills" id="fills-ee0d37b6-3a50-80ca-8008-4e3b4088a728"><ellipse cx="106.33333333333354" cy="185.6666666666664" rx="13.99999999999983" ry="14.000000000000114" transform="matrix(1.000000, 0.000000, 0.000000, 1.000000, 0.000000, 0.000000)" style="fill: rgb(225, 232, 237);"/></g></g><g id="shape-ee0d37b6-3a50-80ca-8008-4e3b4088a729"><g class="fills" id="fills-ee0d37b6-3a50-80ca-8008-4e3b4088a729"><path d="M106.33343505859375,204.33331298828125C96.03875732421875,204.33331298828125,87.666748046875,195.9613037109375,87.666748046875,185.66656494140625C87.666748046875,175.37200927734375,96.03875732421875,167,106.33343505859375,167C116.62799072265625,167,125,175.37200927734375,125,185.66656494140625C125,195.9613037109375,116.62799072265625,204.33331298828125,106.33343505859375,204.33331298828125M106.33343505859375,176.33331298828125C101.18597412109375,176.33331298828125,97.00006103515625,180.51934814453125,97.00006103515625,185.66656494140625C97.00006103515625,190.81402587890625,101.18597412109375,195,106.33343505859375,195C111.48089599609375,195,115.66668701171875,190.81402587890625,115.66668701171875,185.66656494140625C115.66668701171875,180.51934814453125,111.48089599609375,176.33331298828125,106.33343505859375,176.33331298828125" style="fill: rgb(41, 47, 51);"/></g></g><g id="shape-ee0d37b6-3a50-80ca-8008-4e3b4088cbc1"><g class="fills" id="fills-ee0d37b6-3a50-80ca-8008-4e3b4088cbc1"><ellipse cx="171.66666666666646" cy="185.6666666666664" rx="13.999999999999943" ry="14.000000000000114" transform="matrix(1.000000, 0.000000, 0.000000, 1.000000, 0.000000, 0.000000)" style="fill: rgb(225, 232, 237);"/></g></g><g id="shape-ee0d37b6-3a50-80ca-8008-4e3b4088cbc2"><g class="fills" id="fills-ee0d37b6-3a50-80ca-8008-4e3b4088cbc2"><path d="M171.666748046875,204.33331298828125C161.3719482421875,204.33331298828125,152.99993896484375,195.9613037109375,152.99993896484375,185.66656494140625C152.99993896484375,175.37200927734375,161.3719482421875,167,171.666748046875,167C181.96142578125,167,190.33343505859375,175.37200927734375,190.33343505859375,185.66656494140625C190.33343505859375,195.9613037109375,181.96142578125,204.33331298828125,171.666748046875,204.33331298828125M171.666748046875,176.33331298828125C166.519287109375,176.33331298828125,162.333251953125,180.51934814453125,162.333251953125,185.66656494140625C162.333251953125,190.81402587890625,166.519287109375,195,171.666748046875,195C176.814208984375,195,181.00006103515625,190.81402587890625,181.00006103515625,185.66656494140625C181.00006103515625,180.51934814453125,176.814208984375,176.33331298828125,171.666748046875,176.33331298828125" style="fill: rgb(41, 47, 51);"/></g></g></g></g></g></g></g></g></g></svg>